<svg width="68" height="68" viewBox="0 0 68 68" fill="none" xmlns="http://www.w3.org/2000/svg">
<g filter="url(#filter0_d_111_7035)">
<path d="M43.9294 1.69087C39.4743 0.128258 34.7134 -0.360838 30.0336 0.263355C25.3539 0.887549 20.8876 2.60741 16.9978 5.28308C13.1081 7.95874 9.90473 11.5147 7.64828 15.6617C5.39183 19.8087 4.14599 24.4298 4.01207 29.149L18.5799 29.5624C18.6488 27.1357 19.2894 24.7596 20.4497 22.6271C21.61 20.4947 23.2572 18.6662 25.2573 17.2903C27.2575 15.9145 29.5541 15.0301 31.9605 14.7092C34.3668 14.3882 36.815 14.6397 39.1058 15.4432L43.9294 1.69087Z" fill="#E4E8EF"/>
<path d="M4.24303 26.1892C3.51459 31.8772 4.43163 37.6548 6.88553 42.8377C9.33943 48.0205 13.2274 52.3916 18.0888 55.4329C22.9503 58.4743 28.5816 60.0587 34.3158 59.9983C40.0499 59.938 45.6466 58.2355 50.443 55.0924C55.2393 51.9494 59.0344 47.4975 61.3787 42.2641C63.7229 37.0307 64.5182 31.2351 63.6702 25.5636C62.8222 19.8922 60.3665 14.5827 56.5939 10.2639C52.8214 5.94509 47.8901 2.79801 42.3842 1.19539L38.3112 15.1884C41.1424 16.0125 43.6781 17.6308 45.618 19.8515C47.5579 22.0723 48.8206 24.8025 49.2567 27.7188C49.6927 30.6351 49.2838 33.6152 48.0784 36.3063C46.8729 38.9974 44.9215 41.2865 42.4551 42.9027C39.9888 44.5189 37.1109 45.3944 34.1624 45.4254C31.2138 45.4564 28.3182 44.6418 25.8183 43.0778C23.3185 41.5139 21.3193 39.2663 20.0575 36.6012C18.7957 33.9361 18.3241 30.9652 18.6987 28.0404L4.24303 26.1892Z" fill="#7F265B"/>
</g>
<defs>
<filter id="filter0_d_111_7035" x="0" y="0" width="68" height="68" filterUnits="userSpaceOnUse" color-interpolation-filters="sRGB">
<feFlood flood-opacity="0" result="BackgroundImageFix"/>
<feColorMatrix in="SourceAlpha" type="matrix" values="0 0 0 0 0 0 0 0 0 0 0 0 0 0 0 0 0 0 127 0" result="hardAlpha"/>
<feOffset dy="4"/>
<feGaussianBlur stdDeviation="2"/>
<feComposite in2="hardAlpha" operator="out"/>
<feColorMatrix type="matrix" values="0 0 0 0 0 0 0 0 0 0 0 0 0 0 0 0 0 0 0.25 0"/>
<feBlend mode="normal" in2="BackgroundImageFix" result="effect1_dropShadow_111_7035"/>
<feBlend mode="normal" in="SourceGraphic" in2="effect1_dropShadow_111_7035" result="shape"/>
</filter>
</defs>
</svg>
