<svg width="68" height="68" viewBox="0 0 68 68" fill="none" xmlns="http://www.w3.org/2000/svg">
<g filter="url(#filter0_d_111_14277)">
<path d="M46.694 2.81796C41.1262 0.217834 34.8943 -0.609814 28.8409 0.446934C22.7875 1.50368 17.2046 4.39385 12.8471 8.72663C8.48967 13.0594 5.56784 18.6258 4.47672 24.6731C3.3856 30.7204 4.17783 36.9569 6.74629 42.5394L19.9859 36.4478C18.6652 33.5773 18.2578 30.3704 18.8189 27.2609C19.3799 24.1513 20.8824 21.289 23.123 19.061C25.3637 16.8331 28.2344 15.3469 31.3471 14.8036C34.4599 14.2602 37.6644 14.6858 40.5274 16.0228L46.694 2.81796Z" fill="#E4E8EF"/>
<path d="M6.72382 42.4904C9.11134 47.7042 12.9431 52.1245 17.7654 55.2277C22.5876 58.3309 28.1982 59.9871 33.9327 59.9999C39.6671 60.0128 45.2851 58.3819 50.1212 55.3003C54.9574 52.2188 58.809 47.8157 61.2198 42.6127C63.6307 37.4096 64.4999 31.6246 63.7244 25.9428C62.9489 20.2611 60.5612 14.9206 56.8441 10.554C53.127 6.18738 48.2363 2.97758 42.7513 1.30479C37.2662 -0.368005 31.4166 -0.433703 25.8954 1.11548L27.9999 7.5L29.8325 15.1473C32.6716 14.3507 35.6795 14.3845 38.5 15.2447C41.3204 16.1048 43.8353 17.7553 45.7466 20.0007C47.658 22.246 48.8858 24.9922 49.2845 27.9138C49.6833 30.8354 49.2364 33.8101 47.9967 36.4855C46.757 39.161 44.7764 41.4251 42.2897 43.0096C39.8029 44.5942 36.9141 45.4328 33.9654 45.4262C31.0167 45.4196 28.1317 44.568 25.652 42.9723C23.1724 41.3766 21.202 39.1037 19.9743 36.4227L6.72382 42.4904Z" fill="#4CE13F"/>
</g>
<defs>
<filter id="filter0_d_111_14277" x="-1.52588e-05" y="0" width="68" height="68" filterUnits="userSpaceOnUse" color-interpolation-filters="sRGB">
<feFlood flood-opacity="0" result="BackgroundImageFix"/>
<feColorMatrix in="SourceAlpha" type="matrix" values="0 0 0 0 0 0 0 0 0 0 0 0 0 0 0 0 0 0 127 0" result="hardAlpha"/>
<feOffset dy="4"/>
<feGaussianBlur stdDeviation="2"/>
<feComposite in2="hardAlpha" operator="out"/>
<feColorMatrix type="matrix" values="0 0 0 0 0 0 0 0 0 0 0 0 0 0 0 0 0 0 0.25 0"/>
<feBlend mode="normal" in2="BackgroundImageFix" result="effect1_dropShadow_111_14277"/>
<feBlend mode="normal" in="SourceGraphic" in2="effect1_dropShadow_111_14277" result="shape"/>
</filter>
</defs>
</svg>
